#!OML:ASF I:\Actors\actors\Patient Classification 2\Patient 1\Session 1\actor1.ASF
:FULLY-SPECIFIED
:DEGREES
965
root -1.1882 18.45 5.74453 12.6367 -14.0177 1.52641
lowerback 21.9609 -2.12197 1.58492
upperback 1.49743 -2.27399 1.17558
thorax -10.6723 -1.113 1.09233
lowerneck -11.6089 -4.30012 -5.39331
upperneck 28.6323 -6.66989 5.60527
head 11.619 -2.95603 2.09343
rclavicle 6.48038e-014 2.14687e-014
rhumerus -63.8553 20.2037 -88.7772
rradius 117.747
rwrist -34.3245
rhand 31.2056 -61.6843
rfingers 7.12502
rthumb 54.7874 -79.9756
lclavicle 6.48038e-014 2.14687e-014
lhumerus -81.34 -11.7705 95.5603
lradius 130.45
lwrist 50.2531
lhand 30.6123 -8.38747
lfingers 7.12502
lthumb 54.2566 10.2756
rfemur -23.4693 9.11501 11.2472
rtibia 29.5481
rfoot -22.6283 -4.77447
rtoes -16.4571
lfemur -21.8144 7.24191 -15.7761
ltibia 33.391
lfoot -23.5408 11.8829
ltoes -57.1673
966
root -1.1903 18.4506 5.7376 12.6847 -14.0392 1.57617
lowerback 21.9782 -2.13119 1.60834
upperback 1.48886 -2.28287 1.1467
thorax -10.6936 -1.1189 1.0507
lowerneck -11.861 -4.34708 -5.27177
upperneck 28.831 -6.73001 5.47411
head 11.7427 -2.97866 2.01226
rclavicle -4.77083e-014 3.49861e-014
rhumerus -63.7523 20.4733 -88.7059
rradius 117.761
rwrist -34.6449
rhand 31.1797 -61.7727
rfingers 7.12502
rthumb 54.7643 -80.0805
lclavicle -4.77083e-014 3.49861e-014
lhumerus -81.3897 -11.8328 95.6064
lradius 130.444
lwrist 50.269
lhand 30.6253 -8.44669
lfingers 7.12502
lthumb 54.2682 10.2084
rfemur -23.5703 9.1973 11.167
rtibia 29.5711
rfoot -22.6979 -4.80128
rtoes -16.3725
lfemur -21.844 7.247 -15.8159
ltibia 33.3285
lfoot -23.6004 11.7348
ltoes -56.5189
967
root -1.19201 18.451 5.73054 12.7173 -14.0559 1.64679
lowerback 22.0115 -2.14393 1.57838
upperback 1.49577 -2.30636 1.14389
thorax -10.703 -1.12837 1.07298
lowerneck -12.1251 -4.39593 -5.2533
upperneck 28.9467 -6.7714 5.37747
head 11.8408 -2.99999 1.96291
rclavicle -9.26337e-014 4.92986e-014
rhumerus -63.5848 20.7816 -88.6391
rradius 117.703
rwrist -34.9032
rhand 31.1957 -61.7861
rfingers 7.12502
rthumb 54.7786 -80.0837
lclavicle -9.26337e-014 4.92986e-014
lhumerus -81.3439 -11.84 95.6814
lradius 130.38
lwrist 50.1755
lhand 30.6603 -8.46946
lfingers 7.12502
lthumb 54.2996 10.1639
rfemur -23.6618 9.21925 11.0749
rtibia 29.5933
rfoot -22.7052 -4.79804
rtoes -16.3116
lfemur -21.8699 7.26598 -15.8843
ltibia 33.2599
lfoot -23.6238 11.6232
ltoes -56.26
968
root -1.19519 18.4509 5.72256 12.7474 -14.0683 1.67588
lowerback 22.0666 -2.16688 1.53459
upperback 1.52637 -2.34152 1.18509
thorax -10.695 -1.14149 1.15559
lowerneck -12.4464 -4.45328 -5.39746
upperneck 29.0173 -6.80898 5.38235
head 11.9438 -3.02401 1.97821
rclavicle -2.98177e-015 -7.15625e-015
rhumerus -63.4031 21.0704 -88.6413
rradius 117.595
rwrist -35.0154
rhand 31.2796 -61.8454
rfingers 7.12502
rthumb 54.8535 -80.0895
lclavicle -2.98177e-015 -7.15625e-015
lhumerus -81.2145 -11.8111 95.7622
lradius 130.31
lwrist 50.1596
lhand 30.6142 -8.55174
lfingers 7.12502
lthumb 54.2583 10.1101
rfemur -23.7456 9.24771 11.037
rtibia 29.612
rfoot -22.7018 -4.79289
rtoes -16.1608
lfemur -21.903 7.27382 -15.9077
ltibia 33.1927
lfoot -23.5959 11.6615
ltoes -56.3644
969
root -1.19844 18.4514 5.71329 12.7756 -14.0873 1.68477
lowerback 22.1733 -2.19183 1.51174
upperback 1.5423 -2.37339 1.21866
thorax -10.733 -1.15391 1.2195
lowerneck -12.7461 -4.50039 -5.46011
upperneck 29.0479 -6.82902 5.32043
head 12.0195 -3.04029 1.95699
rclavicle -3.45885e-014 -1.39149e-014
rhumerus -63.2538 21.3426 -88.6997
rradius 117.478
rwrist -35.0375
rhand 31.4323 -62.0459
rfingers 7.12502
rthumb 54.9898 -80.192
lclavicle -3.45885e-014 -1.39149e-014
lhumerus -81.1061 -11.8008 95.8127
lradius 130.276
lwrist 50.2796
lhand 30.6315 -8.54008
lfingers 7.12502
lthumb 54.2738 10.1111
rfemur -23.8296 9.23882 11.0324
rtibia 29.6236
rfoot -22.6686 -4.76896
rtoes -16.0492
lfemur -21.9374 7.2138 -15.8989
ltibia 33.1364
lfoot -23.5776 11.7716
ltoes -56.4611
970
root -1.20066 18.4529 5.70403 12.7916 -14.1111 1.70181
lowerback 22.2925 -2.19784 1.52221
upperback 1.58055 -2.37629 1.2169
thorax -10.7557 -1.15543 1.21618
lowerneck -13.1306 -4.55674 -5.38219
upperneck 29.0897 -6.87553 5.19766
head 12.1108 -3.0585 1.88314
rclavicle 2.78299e-015 1.98785e-015
rhumerus -63.0623 21.4872 -88.7235
rradius 117.378
rwrist -35.0804
rhand 31.5267 -62.2574
rfingers 7.12502
rthumb 55.074 -80.3423
lclavicle 2.78299e-015 1.98785e-015
lhumerus -80.9467 -11.8634 95.8285
lradius 130.233
lwrist 50.3702
lhand 30.8174 -8.4438
lfingers 7.12502
lthumb 54.4403 10.0921
rfemur -23.8947 9.19154 11.0263
rtibia 29.6303
rfoot -22.6162 -4.72997
rtoes -16.0515
lfemur -21.9674 7.2022 -15.9035
ltibia 33.0948
lfoot -23.5402 11.7978
ltoes -56.4479
971
root -1.20257 18.455 5.6965 12.7826 -14.1277 1.71737
lowerback 22.4148 -2.20657 1.55121
upperback 1.67428 -2.38007 1.20539
thorax -10.7186 -1.15888 1.19005
lowerneck -13.6782 -4.61184 -5.28042
upperneck 29.1813 -6.92943 5.09749
head 12.2565 -3.07077 1.80934
rclavicle -1.86858e-014 -1.59028e-014
rhumerus -62.7846 21.6152 -88.6844
rradius 117.324
rwrist -35.2158
rhand 31.54 -62.3618
rfingers 7.12502
rthumb 55.0859 -80.4382
lclavicle -1.86858e-014 -1.59028e-014
lhumerus -80.6796 -11.9855 95.7966
lradius 130.162
lwrist 50.4083
lhand 30.9874 -8.49199
lfingers 7.12502
lthumb 54.5924 9.93744
rfemur -23.9182 9.15764 11.0256
rtibia 29.6366
rfoot -22.5708 -4.71466
rtoes -16.0749
lfemur -21.9697 7.27159 -15.9106
ltibia 33.0618
lfoot -23.4759 11.7331
ltoes -56.3639
972
root -1.20458 18.4558 5.68993 12.774 -14.169 1.74707
lowerback 22.5262 -2.22222 1.52978
upperback 1.77766 -2.40452 1.2066
thorax -10.6617 -1.16942 1.21243
lowerneck -14.1439 -4.61428 -5.24424
upperneck 29.2157 -6.91777 5.08376
head 12.3645 -3.05288 1.7905
rclavicle 4.37326e-015 -1.55052e-014
rhumerus -62.5492 21.8301 -88.6158
rradius 117.344
rwrist -35.3597
rhand 31.5355 -62.3662
rfingers 7.12502
rthumb 55.0819 -80.4455
lclavicle 4.37326e-015 -1.55052e-014
lhumerus -80.3795 -12.0722 95.7258
lradius 130.091
lwrist 50.4942
lhand 30.9585 -8.55957
lfingers 7.12502
lthumb 54.5665 9.88806
rfemur -23.9578 9.15339 11.0009
rtibia 29.6508
rfoot -22.5227 -4.70225
rtoes -15.9745
lfemur -21.9713 7.3375 -15.9422
ltibia 33.0315
lfoot -23.4053 11.7421
ltoes -56.3972
973
root -1.20518 18.4559 5.68255 12.7804 -14.2081 1.77828
lowerback 22.6388 -2.23935 1.51366
upperback 1.8685 -2.42778 1.22144
thorax -10.6192 -1.17922 1.24703
lowerneck -14.3688 -4.58945 -5.33902
upperneck 29.1134 -6.88664 5.24207
head 12.3789 -3.0254 1.86638
rclavicle -1.31198e-014 8.34896e-015
rhumerus -62.3073 22.0153 -88.4803
rradius 117.337
rwrist -35.5057
rhand 31.4867 -62.2422
rfingers 7.12502
rthumb 55.0384 -80.3531
lclavicle -1.31198e-014 8.34896e-015
lhumerus -80.1249 -12.1247 95.6661
lradius 130.054
lwrist 50.5838
lhand 30.8194 -8.6183
lfingers 7.12502
lthumb 54.4421 9.91636
rfemur -24.024 9.12644 10.9694
rtibia 29.6802
rfoot -22.4809 -4.64542
rtoes -15.7476
lfemur -22.0141 7.41262 -15.9962
ltibia 33.0043
lfoot -23.2719 11.8826
ltoes -56.864
974
root -1.20524 18.4573 5.67377 12.75 -14.209 1.8139
lowerback 22.8285 -2.25936 1.55076
upperback 1.94054 -2.44086 1.21934
thorax -10.6428 -1.18655 1.23326
lowerneck -14.1583 -4.55507 -5.40034
upperneck 28.7324 -6.8542 5.41037
head 12.1896 -3.00364 1.94653
rclavicle -1.80894e-014 -4.77083e-015
rhumerus -62.0611 22.0604 -88.346
rradius 117.257
rwrist -35.6701
rhand 31.5199 -62.1575
rfingers 7.12502
rthumb 55.068 -80.2469
lclavicle -1.80894e-014 -4.77083e-015
lhumerus -79.9334 -12.2494 95.5891
lradius 130.048
lwrist 50.7143
lhand 30.8361 -8.59452
lfingers 7.12502
lthumb 54.457 9.92974
rfemur -24.0456 9.06724 10.9482
rtibia 29.7245
rfoot -22.4469 -4.59266
rtoes -15.6077
lfemur -22.0481 7.51477 -16.0551
ltibia 32.9882
lfoot -23.0656 12.039
ltoes -57.6609
975
root -1.20686 18.4587 5.66314 12.6533 -14.1838 1.87218
lowerback 23.0703 -2.27817 1.58545
upperback 2.04234 -2.45425 1.19626
thorax -10.6617 -1.19436 1.19892
lowerneck -13.3455 -4.47932 -5.1884
upperneck 27.8052 -6.74114 5.31076
head 11.6369 -2.96645 1.8983
rclavicle 2.96189e-014 -1.55052e-014
rhumerus -61.9512 21.8314 -88.4808
rradius 117.144
rwrist -35.5101
rhand 31.7139 -62.1803
rfingers 7.12502
rthumb 55.2409 -80.1433
lclavicle 2.96189e-014 -1.55052e-014
lhumerus -79.685 -12.4183 95.4376
lradius 130.027
lwrist 50.9214
lhand 31.0695 -8.4351
lfingers 7.12502
lthumb 54.6658 9.94258
rfemur -24.0037 9.0203 10.9244
rtibia 29.7733
rfoot -22.4105 -4.62876
rtoes -15.7841
lfemur -21.9962 7.52701 -16.0948
ltibia 32.9925
lfoot -23.0398 11.9837
ltoes -57.6196
